<svg width="150" height="131" viewBox="0 0 150 131" fill="none" xmlns="http://www.w3.org/2000/svg">
<path d="M37.8586 0.410844L112.857 0L150 65.1927L75.002 65.6035L37.8586 0.410844Z" fill="white"/>
<path d="M129.186 53.135L106.065 11.7653L81.8187 53.7847L129.186 53.135Z" fill="#00E1C6"/>
<path d="M106.064 11.7656L58.6961 12.4153L81.8175 53.7851L106.064 11.7656Z" fill="#009A91"/>
<path d="M37.8558 0.411038L0.0012073 66.0145L37.0251 130.996L74.9992 65.6037L37.8558 0.411038Z" fill="#CCCCCC"/>
<path d="M10.6966 47.4723L0 66.0162L37.0228 131L47.84 112.665L10.6966 47.4723Z" fill="#00E1C6"/>
<path d="M74.9992 65.6037L37.0251 130.996L112.142 130.796L149.997 65.1926L74.9992 65.6037Z" fill="#9D9D9D"/>
<path d="M47.9013 112.565L37.0251 130.996L112.142 130.796L122.899 112.154L47.9013 112.565Z" fill="#009A91"/>
</svg>
